<svg xmlns="http://www.w3.org/2000/svg" xmlns:xlink="http://www.w3.org/1999/xlink" width="800" height="800" viewBox="0 0 120 120">    <defs>        <filter id="a" width="153.3%" height="153.3%" x="-26.1%" y="-19.6%" filterUnits="objectBoundingBox">            <feOffset dy="6" in="SourceAlpha" result="shadowOffsetOuter1"/>            <feGaussianBlur in="shadowOffsetOuter1" result="shadowBlurOuter1" stdDeviation="7"/>            <feColorMatrix in="shadowBlurOuter1" result="shadowMatrixOuter1" values="0 0 0 0 0.996078431 0 0 0 0 0.458823529 0 0 0 0 0.101960784 0 0 0 0.148465806 0"/>            <feMerge>                <feMergeNode in="shadowMatrixOuter1"/>                <feMergeNode in="SourceGraphic"/>            </feMerge>        </filter>        <rect id="b" width="92" height="92" rx="23"/>        <linearGradient id="c" x1="50%" x2="50%" y1="0%" y2="100%">            <stop offset="0%" stop-color="#FCA033"/>            <stop offset="100%" stop-color="#FE751A"/>        </linearGradient>    </defs>    <g fill="none" fill-rule="evenodd" filter="url(#a)" transform="translate(14 8)">        <use fill="#FFF" xlink:href="#b"/>        <path fill="url(#c)" d="M33.04 16.499c-3.821-.055-6.304.418-6.304 3.224 0 3.001 2.798 8.301 7.97 9.685 5.697 1.525 22.68 1.818 22.68 15.374 0 15.455-18.944 20.612-18.944 8.219V41.825c0-4.436-2.662-7.425-6.93-7.425-4.614 0-6.769 2.96-6.769 7.425-.001-.015-.001.045-.001 16.785 0 14.57 12.59 15.25 17.433 15.25 12.488 0 28.147-7.851 28.147-29.376.001-22.399-25.117-27.812-37.281-27.985"/>    </g></svg>
